<svg xmlns="http://www.w3.org/2000/svg" version="1.0" width="512.000000pt" height="512.000000pt" viewBox="0 0 512.000000 512.000000" preserveAspectRatio="xMidYMid meet">

<g transform="translate(0.000000,512.000000) scale(0.100000,-0.100000)" fill="#ffffff" stroke="none">
<path d="M560 4188 c-50 -34 -72 -71 -77 -125 -5 -59 25 -117 77 -147 35 -21 35 -21 2000 -21 1965 0 1965 0 2000 21 52 30 82 88 77 147 -5 54 -27 91 -77 125 l-33 22 -1967 0 -1967 0 -33 -22z" fill="#ffffff"/>
<path d="M575 2706 c-67 -29 -105 -106 -91 -181 9 -47 59 -102 104 -115 26 -8 641 -10 1994 -8 l1957 3 27 21 c53 39 69 71 69 134 0 63 -16 95 -69 134 l-27 21 -1967 2 c-1620 2 -1972 0 -1997 -11z" fill="#ffffff"/>
<path d="M587 1216 c-49 -18 -64 -32 -89 -80 -37 -73 -13 -153 62 -203 l33 -23 1967 0 1967 0 33 23 c50 33 72 70 77 124 5 59 -25 117 -77 147 -35 21 -37 21 -1985 23 -1613 2 -1956 0 -1988 -11z" fill="#ffffff"/>
</g>
</svg>