<svg xmlns="http://www.w3.org/2000/svg" xmlns:xlink="http://www.w3.org/1999/xlink" version="1.1" id="Layer_1" x="0px" y="0px" viewBox="0 0 1920 1080" style="enable-background:new 0 0 1920 1080;" xml:space="preserve">
<style type="text/css">
	.st0{fill:#ffffff;}
</style>
<g>
	<path class="st0" d="M357.9,643.5v-31.8c0-4.4-1-7.5-3-9.5c-2-2-5.2-3-9.5-3H327v-6.4h18.7c6.6,0,11.6,1.6,15,4.8   c3.4,3.2,5.1,7.9,5.1,14.3v31.5H357.9z M327.1,643.5v-17.3c0-3,0.2-5.2,0.7-6.7c0.5-1.5,1-2.9,1.5-4h6.5c-0.3,1.3-0.6,2.7-0.8,4.3   c-0.2,1.6-0.3,3.5-0.3,5.8v17.8H327.1z" fill="#000000"/>
	<path class="st0" d="M417.9,644.4c-1.5,0-2.9-0.1-4.2-0.3c-1.3-0.2-2.6-0.4-4-0.7l0.2-6.2c1.9,0.4,4,0.6,6.3,0.6   c2.3,0,4.1-0.7,5.2-2c1.2-1.3,1.8-3.4,1.8-6.3v-30.2h-9.9v-6.4h17.9v37.3c0,4.7-1.2,8.2-3.5,10.6   C425.5,643.2,422.2,644.4,417.9,644.4z" fill="#000000"/>
	<path class="st0" d="M484,643.5v-44.2h-5.9v-6.4H492v50.6H484z" fill="#000000"/>
	<path class="st0" d="M548.2,643.5l-6.9-43.9l-3.6-0.6v-6.1h24.6l0,6.4h-13.1l7.2,44.2H548.2z" fill="#000000"/>
	<path class="st0" d="M628.8,592.9c6.7,0,11.7,1.6,15,4.8c3.3,3.2,5,8,5,14.6v31.2h-7.9l0-31.7c0-4.4-0.9-7.6-2.8-9.5   c-1.9-2-4.9-3-9.1-3h-7.2c-0.9,1.5-1.7,3.5-2.3,6c-0.5,2.4-0.8,4.9-0.8,7.4v17.1c0,4.7-1.1,8.2-3.4,10.6c-2.2,2.4-5.4,3.6-9.6,3.6   c-0.9,0-1.7,0-2.5-0.1c-0.8-0.1-1.6-0.1-2.4-0.3v-6.4c0.5,0.1,1,0.1,1.5,0.1c0.5,0,1,0,1.5,0c2.5,0,4.3-0.6,5.5-1.9   c1.1-1.3,1.7-3.3,1.7-6.1v-16c0-2.5,0.3-5.1,1-7.7c0.7-2.6,1.6-4.7,2.9-6.3h-9.5v-6.4H628.8z" fill="#000000"/>
	<path class="st0" d="M712.7,620.1h-21v-6.5h21V620.1z" fill="#000000"/>
	<path class="st0" d="M786.4,643.5v-31.8c0-4.4-1-7.5-3-9.5c-2-2-5.2-3-9.5-3h-18.3v-6.4h18.7c6.6,0,11.6,1.6,15,4.8   c3.4,3.2,5.1,7.9,5.1,14.3v31.5H786.4z M755.6,643.5v-17.3c0-3,0.2-5.2,0.7-6.7c0.5-1.5,1-2.9,1.5-4h6.5c-0.3,1.3-0.6,2.7-0.8,4.3   c-0.2,1.6-0.3,3.5-0.3,5.8v17.8H755.6z" fill="#000000"/>
	<path class="st0" d="M856.3,644.6c-2.6,0-5.5-0.3-8.5-0.9c-3-0.5-6.2-1.4-9.5-2.7l1.9-5.9c2.9,1.1,5.6,1.9,8.1,2.5   c2.5,0.5,4.9,0.8,7,0.9c4.7,0,8.4-1.3,11.3-3.8c2.9-2.5,4.3-6.2,4.3-11.1v-30.6h8v30.3c0,4.6-1,8.6-2.9,11.7   c-1.9,3.2-4.5,5.5-7.9,7.2C864.7,643.8,860.8,644.6,856.3,644.6z M841.1,592.9h8l8.2,37.3c0.5,2.1,1,4,1.5,5.5   c0.6,1.5,1.4,2.9,2.4,4.1l-6.3-0.1c-1.2-1.2-2.3-2.6-3.3-4.2c-1-1.6-1.7-3.5-2.2-5.7L841.1,592.9z" fill="#000000"/>
	<path class="st0" d="M931.6,643.5v-44.2h-5.9v-6.4h13.9v50.6H931.6z" fill="#000000"/>
	<path class="st0" d="M992.9,644.4c-1.5,0-2.9-0.1-4.2-0.3c-1.3-0.2-2.6-0.4-4-0.7l0.2-6.2c1.9,0.4,4,0.6,6.3,0.6   c2.3,0,4.1-0.7,5.2-2c1.2-1.3,1.8-3.4,1.8-6.3v-30.2h-9.9v-6.4h17.9v37.3c0,4.7-1.2,8.2-3.5,10.6   C1000.5,643.2,997.2,644.4,992.9,644.4z" fill="#000000"/>
	<path class="st0" d="M1077.2,592.9c6.7,0,11.7,1.6,15,4.8c3.3,3.2,5,8,5,14.6v31.2h-7.9l0-31.7c0-4.4-0.9-7.6-2.8-9.5   c-1.9-2-4.9-3-9.1-3h-7.2c-0.9,1.5-1.7,3.5-2.3,6c-0.5,2.4-0.8,4.9-0.8,7.4v17.1c0,4.7-1.1,8.2-3.4,10.6c-2.2,2.4-5.4,3.6-9.6,3.6   c-0.9,0-1.7,0-2.5-0.1c-0.8-0.1-1.6-0.1-2.4-0.3v-6.4c0.5,0.1,1,0.1,1.5,0.1c0.5,0,1,0,1.5,0c2.5,0,4.3-0.6,5.5-1.9   c1.1-1.3,1.7-3.3,1.7-6.1v-16c0-2.5,0.3-5.1,1-7.7c0.7-2.6,1.6-4.7,2.9-6.3h-9.5v-6.4H1077.2z" fill="#000000"/>
	<path class="st0" d="M1161.1,620.1h-21v-6.5h21V620.1z" fill="#000000"/>
	<path class="st0" d="M1234.8,643.5v-31.8c0-4.4-1-7.5-3-9.5c-2-2-5.2-3-9.5-3H1204v-6.4h18.7c6.6,0,11.6,1.6,15,4.8   c3.4,3.2,5.1,7.9,5.1,14.3v31.5H1234.8z M1204.1,643.5v-17.3c0-3,0.2-5.2,0.7-6.7c0.5-1.5,1-2.9,1.5-4h6.5   c-0.3,1.3-0.6,2.7-0.8,4.3c-0.2,1.6-0.3,3.5-0.3,5.8v17.8H1204.1z" fill="#000000"/>
	<path class="st0" d="M1304.7,644.6c-2.6,0-5.5-0.3-8.5-0.9c-3-0.5-6.2-1.4-9.5-2.7l1.9-5.9c2.9,1.1,5.6,1.9,8.1,2.5   c2.5,0.5,4.9,0.8,7,0.9c4.7,0,8.4-1.3,11.3-3.8c2.9-2.5,4.3-6.2,4.3-11.1v-30.6h8v30.3c0,4.6-1,8.6-2.9,11.7   c-1.9,3.2-4.5,5.5-7.9,7.2C1313.1,643.8,1309.2,644.6,1304.7,644.6z M1289.5,592.9h8l8.2,37.3c0.5,2.1,1,4,1.5,5.5   c0.6,1.5,1.4,2.9,2.4,4.1l-6.3-0.1c-1.2-1.2-2.3-2.6-3.3-4.2c-1-1.6-1.7-3.5-2.2-5.7L1289.5,592.9z" fill="#000000"/>
	<path class="st0" d="M1372.4,592.9h40.5v6.4h-8.5v44.2h-8v-44.2h-24.1V592.9z" fill="#000000"/>
	<path class="st0" d="M1460.7,643.5v-44.2h-5.9v-6.4h13.9v50.6H1460.7z" fill="#000000"/>
	<path class="st0" d="M1539.6,592.9c6.7,0,11.7,1.6,15,4.8c3.3,3.2,5,8,5,14.6v31.2h-7.9l-0.1-31.7c0-4.4-0.9-7.6-2.8-9.5   c-1.9-2-4.9-3-9.1-3h-7.2c-1,1.5-1.7,3.5-2.3,6c-0.6,2.4-0.8,4.9-0.8,7.4v17.1c0,4.7-1.1,8.2-3.3,10.6c-2.2,2.4-5.4,3.6-9.6,3.6   c-0.9,0-1.7,0-2.5-0.1c-0.8-0.1-1.6-0.1-2.5-0.3v-6.4c0.5,0.1,1,0.1,1.5,0.1c0.5,0,1,0,1.5,0c2.5,0,4.3-0.6,5.5-1.9   c1.1-1.3,1.7-3.3,1.7-6.1v-16c0-2.5,0.3-5.1,1-7.7c0.7-2.6,1.7-4.7,2.9-6.3h-9.5v-6.4H1539.6z" fill="#000000"/>
	<path class="st0" d="M362.8,434.5h235.6l-14.3,22.7H463L446.6,483h94.2l-14.3,22.7h-94.2l-10.2,16.1l-37.2,4.9h173.2l-14.3,22.7   H337.4l-10.2-21.3l42.9-68.1l12.4,15.7l-9.5-20L362.8,434.5z" fill="#000000"/>
	<path class="st0" d="M604.8,434.5h114.5l-55.2,87.3l-37.2,4.9h87.5l17.3-27.4h55.4l12.9,26.9l-0.2,0.5h0.3l-14.3,22.7h-230   l56.3-89.4l12.6,15.7l-9.7-20L604.8,434.5z" fill="#000000"/>
	<path class="st0" d="M845.9,434.5h210.6l10.8,22.6v0.2l7.5,15.7l-33.9,53.8h0.3l-14.3,22.7h-230l56.3-89.4l12.6,15.7l-9.7-20   L845.9,434.5z M955.5,526.8l44.1-69.5h-53.4l-40.9,64.6l-37.2,4.9H955.5z" fill="#000000"/>
	<path class="st0" d="M1112.6,526.8h86l-12.7-26.6l-31,21L1112.6,526.8z M1289.4,549.5h-257.7l130.1-88.4l13.7,17.3l-9.5-20   l-11.5-23.9h79.8L1289.4,549.5z" fill="#000000"/>
	<path class="st0" d="M1348.8,434.5h235.7l7.6,15.7l-35.1,55.5h-23.2l20.8,43.7h-79.8l-18.8-39.3l-2.1-4.5h-35.6l-27.7,43.7h-90.8   l56.3-89.4l12.6,15.7l-9.7-20L1348.8,434.5z M1489.3,478.1l13.2-20.8H1449l-16.4,25.8h87.6L1489.3,478.1z" fill="#000000"/>
</g>
</svg>